<svg xmlns="http://www.w3.org/2000/svg" version="1.1" style="font-family:Lato, &#x27;Helvetica Neue&#x27;, Helvetica, Arial, &#x27;Liberation Sans&#x27;, sans-serif;font-size:18px;background-color:white;text-rendering:geometricPrecision;-webkit-font-smoothing:antialiased" width="850" height="676.55" viewBox="0 0 850 676.55"><defs><style>@import url(https://ourworldindata.org/fonts.css)</style></defs><defs><pattern id="noDataPattern" patternUnits="userSpaceOnUse" width="4" height="4" patternTransform="rotate(-45 2 2)"><path d="M -1,2 l 6,0" stroke="#ccc" stroke-width="0.7"></path></pattern></defs><rect class="background-fill" fill="white" width="850" height="676.55"></rect><g id="header" class="HeaderView"><g id="logo" transform="translate(769, 16) scale(1)"><svg className="owidLogo" xmlns="http://www.w3.org/2000/svg" width="65" height="36" viewBox="0 0 65 36"  fill="none"><path fill="#002147" d="M0 0h64.8v36H0z"/><path fill="#CE261E" d="M0 33.3h64.8V36H0z"/><path fill="#fff" d="M13.796 10.575c0 .636-.106 1.226-.318 1.77a4.193 4.193 0 0 1-.894 1.404 4.084 4.084 0 0 1-1.386.93c-.54.22-1.138.33-1.794.33-.656 0-1.256-.11-1.8-.33a4.149 4.149 0 0 1-1.392-.93 4.193 4.193 0 0 1-.894-1.404A4.833 4.833 0 0 1 5 10.575c0-.636.106-1.224.318-1.764a4.18 4.18 0 0 1 .894-1.41 4.076 4.076 0 0 1 1.392-.924 4.684 4.684 0 0 1 1.8-.336c.656 0 1.254.112 1.794.336.54.224 1.002.534 1.386.93.384.392.682.86.894 1.404.212.54.318 1.128.318 1.764Zm-1.656 0c0-.476-.064-.902-.192-1.278a2.671 2.671 0 0 0-.54-.966 2.332 2.332 0 0 0-.864-.606 2.94 2.94 0 0 0-1.14-.21c-.424 0-.806.07-1.146.21-.34.14-.63.342-.87.606a2.742 2.742 0 0 0-.546.966 3.955 3.955 0 0 0-.192 1.278c0 .476.064.904.192 1.284.128.376.31.696.546.96.24.26.53.46.87.6.34.14.722.21 1.146.21.424 0 .804-.07 1.14-.21.34-.14.628-.34.864-.6.236-.264.416-.584.54-.96a4.01 4.01 0 0 0 .192-1.284ZM16.104 8.757v3.912c0 .376.086.668.258.876.176.204.438.306.786.306.256 0 .496-.056.72-.168a2.58 2.58 0 0 0 .636-.474V8.757h1.482v6.156h-.906c-.192 0-.318-.09-.378-.27l-.102-.492a4.65 4.65 0 0 1-.396.354 2.577 2.577 0 0 1-.438.27 2.35 2.35 0 0 1-.498.168 2.345 2.345 0 0 1-.57.066c-.336 0-.634-.056-.894-.168a1.821 1.821 0 0 1-.648-.486 2.157 2.157 0 0 1-.402-.738 3.233 3.233 0 0 1-.132-.948V8.757h1.482ZM21.328 14.913V8.757h.87c.152 0 .258.028.318.084.06.056.1.152.12.288l.09.744c.22-.38.478-.68.774-.9.296-.22.628-.33.996-.33.304 0 .556.07.756.21l-.192 1.11c-.012.072-.038.124-.078.156a.278.278 0 0 1-.162.042 1.01 1.01 0 0 1-.246-.042 1.646 1.646 0 0 0-.414-.042c-.308 0-.572.086-.792.258-.22.168-.406.416-.558.744v3.834h-1.482ZM27.347 6.237h1.356a.57.57 0 0 1 .348.102c.096.064.16.152.192.264l1.476 5.19c.036.128.068.268.096.42.032.148.062.306.09.474a5.968 5.968 0 0 1 .228-.894l1.704-5.19a.575.575 0 0 1 .186-.252.543.543 0 0 1 .348-.114h.474a.57.57 0 0 1 .348.102.497.497 0 0 1 .192.264l1.692 5.19c.088.256.164.54.228.852.028-.156.056-.306.084-.45.032-.144.064-.278.096-.402l1.476-5.19c.028-.1.09-.186.186-.258a.563.563 0 0 1 .348-.108h1.266l-2.694 8.676h-1.458l-1.896-5.928-.078-.246a9.504 9.504 0 0 1-.072-.282c-.024.1-.05.194-.078.282-.024.088-.048.17-.072.246l-1.914 5.928H30.04l-2.694-8.676ZM42.771 8.661c.46 0 .876.074 1.248.222.376.148.696.358.96.63s.468.604.612.996c.144.392.216.83.216 1.314 0 .488-.072.928-.216 1.32a2.85 2.85 0 0 1-.612 1.002 2.653 2.653 0 0 1-.96.636 3.35 3.35 0 0 1-1.248.222c-.46 0-.878-.074-1.254-.222a2.712 2.712 0 0 1-.966-.636 2.922 2.922 0 0 1-.618-1.002 3.807 3.807 0 0 1-.216-1.32c0-.484.072-.922.216-1.314.148-.392.354-.724.618-.996.268-.272.59-.482.966-.63a3.397 3.397 0 0 1 1.254-.222Zm0 5.202c.512 0 .89-.172 1.134-.516.248-.344.372-.848.372-1.512s-.124-1.17-.372-1.518c-.244-.348-.622-.522-1.134-.522-.52 0-.904.176-1.152.528-.248.348-.372.852-.372 1.512s.124 1.164.372 1.512c.248.344.632.516 1.152.516ZM46.723 14.913V8.757h.87c.152 0 .258.028.318.084.06.056.1.152.12.288l.09.744c.22-.38.478-.68.774-.9.296-.22.628-.33.996-.33.304 0 .556.07.756.21l-.192 1.11c-.012.072-.038.124-.078.156a.278.278 0 0 1-.162.042 1.01 1.01 0 0 1-.246-.042 1.646 1.646 0 0 0-.414-.042c-.308 0-.572.086-.792.258-.22.168-.406.416-.558.744v3.834h-1.482ZM52.96 5.997v8.916h-1.482V5.997h1.482ZM58.732 14.913c-.192 0-.318-.09-.378-.27l-.12-.594a3.68 3.68 0 0 1-.402.39c-.14.116-.292.216-.456.3-.16.084-.334.148-.522.192a2.372 2.372 0 0 1-.6.072c-.336 0-.644-.07-.924-.21a2.098 2.098 0 0 1-.726-.606 3.033 3.033 0 0 1-.468-.99 5.072 5.072 0 0 1-.162-1.344c0-.456.062-.88.186-1.272s.302-.732.534-1.02c.232-.288.51-.512.834-.672a2.384 2.384 0 0 1 1.092-.246 2.103 2.103 0 0 1 1.536.606V5.997h1.482v8.916h-.906Zm-1.974-1.086c.308 0 .57-.064.786-.192.216-.128.42-.31.612-.546v-2.76a1.452 1.452 0 0 0-.552-.432 1.597 1.597 0 0 0-.636-.126c-.224 0-.428.042-.612.126a1.21 1.21 0 0 0-.462.384c-.124.168-.22.384-.288.648-.068.26-.102.568-.102.924 0 .36.028.666.084.918.06.248.144.452.252.612.108.156.24.27.396.342.156.068.33.102.522.102ZM16.331 20.757v6.156H14.85v-6.156h1.481Zm.223-1.794a.844.844 0 0 1-.078.36.963.963 0 0 1-.21.294.995.995 0 0 1-.3.204.963.963 0 0 1-.372.072.948.948 0 0 1-.367-.072 1.018 1.018 0 0 1-.498-.498.963.963 0 0 1 0-.732.995.995 0 0 1 .205-.3.929.929 0 0 1 .293-.198.899.899 0 0 1 .738 0 .912.912 0 0 1 .3.198.943.943 0 0 1 .288.672ZM17.771 26.913v-6.156h.906c.192 0 .318.09.378.27l.102.486a2.934 2.934 0 0 1 .828-.618c.156-.076.322-.134.498-.174.176-.04.368-.06.576-.06.336 0 .634.058.894.174.26.112.476.272.648.48.176.204.308.45.396.738.092.284.138.598.138.942v3.918h-1.482v-3.918c0-.376-.088-.666-.264-.87-.172-.208-.432-.312-.78-.312-.256 0-.496.058-.72.174a2.58 2.58 0 0 0-.636.474v4.452h-1.482ZM34.22 22.575c0 .636-.106 1.22-.318 1.752-.212.532-.51.99-.894 1.374a4 4 0 0 1-1.386.894 4.87 4.87 0 0 1-1.794.318h-3.312v-8.676h3.312a4.79 4.79 0 0 1 1.794.324 4 4 0 0 1 1.386.894c.384.38.682.836.894 1.368.212.532.318 1.116.318 1.752Zm-1.65 0c0-.476-.064-.902-.192-1.278a2.68 2.68 0 0 0-.546-.96 2.332 2.332 0 0 0-.864-.606 2.94 2.94 0 0 0-1.14-.21h-1.686v6.108h1.686c.424 0 .804-.07 1.14-.21.34-.14.628-.34.864-.6a2.75 2.75 0 0 0 .546-.96 4.01 4.01 0 0 0 .192-1.284ZM39.98 26.913h-.665c-.14 0-.25-.02-.33-.06-.08-.044-.14-.13-.18-.258l-.132-.438c-.156.14-.31.264-.462.372a2.804 2.804 0 0 1-.462.264c-.16.072-.33.126-.51.162-.18.036-.38.054-.6.054-.26 0-.5-.034-.72-.102a1.618 1.618 0 0 1-.57-.318 1.448 1.448 0 0 1-.366-.522 1.852 1.852 0 0 1-.132-.726c0-.232.06-.46.18-.684.124-.228.328-.432.612-.612.284-.184.662-.336 1.134-.456.472-.12 1.058-.188 1.758-.204v-.36c0-.412-.088-.716-.264-.912-.172-.2-.424-.3-.756-.3a1.837 1.837 0 0 0-1.02.276c-.116.068-.224.13-.324.186a.664.664 0 0 1-.33.084.429.429 0 0 1-.258-.078.614.614 0 0 1-.174-.192l-.27-.474c.708-.648 1.562-.972 2.562-.972.36 0 .68.06.96.18.284.116.524.28.72.492.196.208.344.458.444.75.104.292.156.612.156.96v3.888Zm-2.88-.924c.153 0 .293-.014.42-.042.129-.028.249-.07.36-.126.117-.056.227-.124.33-.204.109-.084.217-.182.325-.294v-1.038c-.432.02-.794.058-1.086.114-.288.052-.52.12-.696.204a.923.923 0 0 0-.378.294.664.664 0 0 0-.108.366c0 .26.076.446.228.558.156.112.358.168.606.168ZM43.22 27.01c-.532 0-.942-.15-1.23-.45-.288-.305-.432-.723-.432-1.255v-3.438h-.624a.31.31 0 0 1-.21-.078c-.056-.052-.084-.13-.084-.234v-.588l.99-.162.312-1.68a.302.302 0 0 1 .108-.186.365.365 0 0 1 .222-.066h.768v1.938h1.62v1.056h-1.62v3.336c0 .192.048.342.144.45a.488.488 0 0 0 .384.162c.092 0 .168-.01.228-.03.064-.024.118-.048.162-.072.048-.024.09-.046.126-.066a.194.194 0 0 1 .108-.036.16.16 0 0 1 .108.036c.028.02.058.052.09.096l.444.72c-.216.18-.464.316-.744.408a2.77 2.77 0 0 1-.87.138ZM50.423 26.913h-.666c-.14 0-.25-.02-.33-.06-.08-.044-.14-.13-.18-.258l-.132-.438c-.156.14-.31.264-.462.372a2.804 2.804 0 0 1-.462.264c-.16.072-.33.126-.51.162-.18.036-.38.054-.6.054-.26 0-.5-.034-.72-.102a1.618 1.618 0 0 1-.57-.318 1.448 1.448 0 0 1-.366-.522 1.852 1.852 0 0 1-.132-.726c0-.232.06-.46.18-.684.124-.228.328-.432.612-.612.284-.184.662-.336 1.134-.456.472-.12 1.058-.188 1.758-.204v-.36c0-.412-.088-.716-.264-.912-.172-.2-.424-.3-.756-.3a1.837 1.837 0 0 0-1.02.276c-.116.068-.224.13-.324.186a.664.664 0 0 1-.33.084.429.429 0 0 1-.258-.078.614.614 0 0 1-.174-.192l-.27-.474c.708-.648 1.562-.972 2.562-.972.36 0 .68.06.96.18.284.116.524.28.72.492.196.208.344.458.444.75.104.292.156.612.156.96v3.888Zm-2.88-.924c.152 0 .292-.014.42-.042.128-.028.248-.07.36-.126.116-.056.226-.124.33-.204.108-.084.216-.182.324-.294v-1.038c-.432.02-.794.058-1.086.114-.288.052-.52.12-.696.204a.923.923 0 0 0-.378.294.664.664 0 0 0-.108.366c0 .26.076.446.228.558.156.112.358.168.606.168Z"/></svg></g><a id="title" href="https://ourworldindata.org/grapher/co-emissions-per-capita?tab=chart&amp;country=~IND" style="font-family:&#x27;Playfair Display&#x27;, Georgia, &#x27;Times New Roman&#x27;, &#x27;Liberation Serif&#x27;, serif" target="_blank" rel="noopener"><text font-size="24.75" font-weight="600" x="16.0" y="40.0" fill="#5b5b5b"><tspan x="16" y="40.0075">Per capita CO₂ emissions</tspan></text></a><g id="subtitle" class="markdown-text-wrap"><text x="16.0" y="63.9" style="font-size:14.625px;line-height:1.2" fill="#5b5b5b"><tspan x="16" y="63.9">Carbon dioxide (CO₂) emissions from <tspan class="dod-span" data-id="fossilemissions">fossil fuels and industry<tspan style="font-feature-settings:&quot;sups&quot;">¹</tspan></tspan>. Land-use change is not included.</tspan></text></g></g><g id="chart-area" style="pointer-events:none"><g id="line-chart" class="LineChart"><defs><clipPath id="boundsClip-7"><rect x="37.46" y="73.25" width="838" height="470.35"></rect></clipPath></defs><rect x="16" y="83.25" width="818" height="450.35" fill="none"></rect><g id="dual-axis" class="DualAxisView"><g id="horizontal-axis" class="HorizontalAxis"><g id="tick__1858"><line x1="47.5" y1="512.6" x2="47.5" y2="518.1" stroke="#999" stroke-width="1"></line><text x="47.46" y="531.6" fill="#5b5b5b" text-anchor="start" font-size="13.5">1858</text></g><g id="tick__2022"><line x1="769.6" y1="512.6" x2="769.6" y2="518.1" stroke="#999" stroke-width="1"></line><text x="769.5699999999999" y="531.6" fill="#5b5b5b" text-anchor="end" font-size="13.5">2022</text></g><g id="tick__1880"><line x1="144.3" y1="512.6" x2="144.3" y2="518.1" stroke="#999" stroke-width="1"></line><text x="144.3" y="531.6" fill="#5b5b5b" text-anchor="middle" font-size="13.5">1880</text></g><g id="tick__1900"><line x1="232.4" y1="512.6" x2="232.4" y2="518.1" stroke="#999" stroke-width="1"></line><text x="232.4" y="531.6" fill="#5b5b5b" text-anchor="middle" font-size="13.5">1900</text></g><g id="tick__1920"><line x1="320.5" y1="512.6" x2="320.5" y2="518.1" stroke="#999" stroke-width="1"></line><text x="320.5" y="531.6" fill="#5b5b5b" text-anchor="middle" font-size="13.5">1920</text></g><g id="tick__1940"><line x1="408.5" y1="512.6" x2="408.5" y2="518.1" stroke="#999" stroke-width="1"></line><text x="408.5" y="531.6" fill="#5b5b5b" text-anchor="middle" font-size="13.5">1940</text></g><g id="tick__1960"><line x1="496.6" y1="512.6" x2="496.6" y2="518.1" stroke="#999" stroke-width="1"></line><text x="496.6" y="531.6" fill="#5b5b5b" text-anchor="middle" font-size="13.5">1960</text></g><g id="tick__1980"><line x1="584.6" y1="512.6" x2="584.6" y2="518.1" stroke="#999" stroke-width="1"></line><text x="584.6" y="531.6" fill="#5b5b5b" text-anchor="middle" font-size="13.5">1980</text></g><g id="tick__2000"><line x1="672.7" y1="512.6" x2="672.7" y2="518.1" stroke="#999" stroke-width="1"></line><text x="672.7" y="531.6" fill="#5b5b5b" text-anchor="middle" font-size="13.5">2000</text></g></g><g id="vertical-axis" class="VerticalAxis"><g id="tick-labels"><text id="tick-label__0-t" x="42.46" y="513.1" dy=".32em" text-anchor="end" fill="#5b5b5b" font-size="13.5">0 t</text><text id="tick-label__0__002e5-t" x="42.46" y="407" dy=".32em" text-anchor="end" fill="#5b5b5b" font-size="13.5">0.5 t</text><text id="tick-label__1-t" x="42.46" y="300.8" dy=".32em" text-anchor="end" fill="#5b5b5b" font-size="13.5">1 t</text><text id="tick-label__1__002e5-t" x="42.46" y="194.7" dy=".32em" text-anchor="end" fill="#5b5b5b" font-size="13.5">1.5 t</text></g></g><g id="horizontal-grid-lines" class="AxisGridLines horizontalLines"><line id="grid-line__0" x1="47.46" y1="513.1" x2="769.57" y2="513.1" stroke="#999" stroke-width="1"></line><line id="grid-line__0__002e5" x1="47.46" y1="407" x2="769.57" y2="407" stroke="#ddd" stroke-width="1" stroke-dasharray="3,2"></line><line id="grid-line__1" x1="47.46" y1="300.8" x2="769.57" y2="300.8" stroke="#ddd" stroke-width="1" stroke-dasharray="3,2"></line><line id="grid-line__1__002e5" x1="47.46" y1="194.7" x2="769.57" y2="194.7" stroke="#ddd" stroke-width="1" stroke-dasharray="3,2"></line></g></g><g clip-path="url(#boundsClip-7)"><g id="line-labels" class="LineLabels"><g id="mark__India" class="legendMark" style="cursor:default"><rect id="background" x="769.5699999999999" y="83.25" width="64.43" height="13.5" fill="#fff" opacity="0"></rect><text id="label" font-size="13.50" font-weight="400" x="773.6" y="95.0" fill="#c15065"><tspan x="773.5699999999999" y="94.995">India</tspan></text></g></g><g id="lines" class="Lines"><rect x="47" y="89" width="722" height="424" fill="rgba(255,255,255,0)" opacity="0"></rect><g id="line__India"><path stroke-linecap="round" stroke-linejoin="round" stroke="#ddd" d="M47.5 512.8L51.9 512.5L56.3 512.5L60.7 512.7L65.1 512.6L69.5 512.6L73.9 512.6L78.3 512.6L82.7 512.6L135.5 511.6L139.9 511.7L144.3 511.5L148.7 511.6L153.1 511.3L157.5 511.1L161.9 510.9L166.3 511.1L170.7 510.9L175.2 510.7L179.6 510.4L184 510L188.4 509.7L192.8 509.4L197.2 509.1L201.6 508.9L206 508.8L210.4 507.7L214.8 507.3L219.2 506.8L223.6 506.2L228 505.5L232.4 504.1L236.8 503.2L241.2 502.2L245.6 502.1L250 500.8L254.4 500.6L258.8 498.8L263.2 497.2L267.6 495.1L272 495.7L276.4 496.2L280.8 495.3L285.2 492.7L289.6 490.6L294 490.5L298.4 489.5L302.8 489.2L307.2 488.2L311.6 485.1L316 482.6L320.5 488.5L324.9 486.8L329.3 487.4L333.7 486.9L338.1 485.4L342.5 486L346.9 486.3L351.3 485.3L355.7 486.8L360.1 486L364.5 485.8L368.9 488.4L373.3 490.5L377.7 491.2L382.1 489L386.5 488.2L390.9 489L395.3 486.8L399.7 484.1L404.1 484.9L408.5 483.4L412.9 482.7L417.3 482.6L421.7 486.4L426.1 485.5L430.5 482.3L434.9 482.5L439.3 481.7L443.7 481.4L448.1 479.6L452.5 476.8L456.9 475.9L461.4 474.7L465.8 474.8L470.2 473.7L474.6 471.1L479 470.6L483.4 466.4L487.8 465.4L492.2 463.7L496.6 460.1L501 457.1L505.4 452.8L509.8 449.8L514.2 452.6L518.6 447.9L523 446.9L527.4 448.2L531.8 443.8L536.2 444L540.6 443.9L545 441.6L549.4 439.2L553.8 438.6L558.2 437.9L562.6 433.4L567 431.6L571.4 428.7L575.8 429.3L580.2 427L584.6 424.2L589 419.3L593.4 418.4L597.8 412.9L602.3 412.5L606.7 404.9L611.1 399.7L615.5 394.6L619.9 387.9L624.3 378.4L628.7 372.1L633.1 366.2L637.5 359.8L641.9 357.9L646.3 352.7L650.7 345.7L655.1 335.3L659.5 331.4L663.9 331.1L668.3 319.2L672.7 317.3L677.1 318.1L681.5 315.6L685.9 311.9L690.3 302.9L694.7 295.1L699.1 279.1L703.5 264.6L707.9 251.1L712.3 233.4L716.7 226.1L721.1 215.2L725.5 192.4L729.9 185.1L734.3 164.2L738.7 154.6L743.2 139.7L747.6 132.7L752 111L756.4 112.1L760.8 145L765.2 109.8L769.6 89.3" fill="none" stroke-width="1"></path></g><g id="line__India"><path id="outline" fill="none" stroke-linecap="butt" stroke-linejoin="round" stroke="#fff" stroke-width="2.5" d="M47.5 512.8L51.9 512.5L56.3 512.5L60.7 512.7L65.1 512.6L69.5 512.6L73.9 512.6L78.3 512.6L82.7 512.6L135.5 511.6L139.9 511.7L144.3 511.5L148.7 511.6L153.1 511.3L157.5 511.1L161.9 510.9L166.3 511.1L170.7 510.9L175.2 510.7L179.6 510.4L184 510L188.4 509.7L192.8 509.4L197.2 509.1L201.6 508.9L206 508.8L210.4 507.7L214.8 507.3L219.2 506.8L223.6 506.2L228 505.5L232.4 504.1L236.8 503.2L241.2 502.2L245.6 502.1L250 500.8L254.4 500.6L258.8 498.8L263.2 497.2L267.6 495.1L272 495.7L276.4 496.2L280.8 495.3L285.2 492.7L289.6 490.6L294 490.5L298.4 489.5L302.8 489.2L307.2 488.2L311.6 485.1L316 482.6L320.5 488.5L324.9 486.8L329.3 487.4L333.7 486.9L338.1 485.4L342.5 486L346.9 486.3L351.3 485.3L355.7 486.8L360.1 486L364.5 485.8L368.9 488.4L373.3 490.5L377.7 491.2L382.1 489L386.5 488.2L390.9 489L395.3 486.8L399.7 484.1L404.1 484.9L408.5 483.4L412.9 482.7L417.3 482.6L421.7 486.4L426.1 485.5L430.5 482.3L434.9 482.5L439.3 481.7L443.7 481.4L448.1 479.6L452.5 476.8L456.9 475.9L461.4 474.7L465.8 474.8L470.2 473.7L474.6 471.1L479 470.6L483.4 466.4L487.8 465.4L492.2 463.7L496.6 460.1L501 457.1L505.4 452.8L509.8 449.8L514.2 452.6L518.6 447.9L523 446.9L527.4 448.2L531.8 443.8L536.2 444L540.6 443.9L545 441.6L549.4 439.2L553.8 438.6L558.2 437.9L562.6 433.4L567 431.6L571.4 428.7L575.8 429.3L580.2 427L584.6 424.2L589 419.3L593.4 418.4L597.8 412.9L602.3 412.5L606.7 404.9L611.1 399.7L615.5 394.6L619.9 387.9L624.3 378.4L628.7 372.1L633.1 366.2L637.5 359.8L641.9 357.9L646.3 352.7L650.7 345.7L655.1 335.3L659.5 331.4L663.9 331.1L668.3 319.2L672.7 317.3L677.1 318.1L681.5 315.6L685.9 311.9L690.3 302.9L694.7 295.1L699.1 279.1L703.5 264.6L707.9 251.1L712.3 233.4L716.7 226.1L721.1 215.2L725.5 192.4L729.9 185.1L734.3 164.2L738.7 154.6L743.2 139.7L747.6 132.7L752 111L756.4 112.1L760.8 145L765.2 109.8L769.6 89.3"></path><g id="polyline"><polyline id="polyline" points="47.50,512.80 51.90,512.50 56.30,512.50 60.70,512.70 65.10,512.60 69.50,512.60 73.90,512.60 78.30,512.60 82.70,512.60 135.50,511.60 139.90,511.70 144.30,511.50 148.70,511.60 153.10,511.30 157.50,511.10 161.90,510.90 166.30,511.10 170.70,510.90 175.20,510.70 179.60,510.40 184.00,510.00 188.40,509.70 192.80,509.40 197.20,509.10 201.60,508.90 206.00,508.80 210.40,507.70 214.80,507.30 219.20,506.80 223.60,506.20 228.00,505.50 232.40,504.10 236.80,503.20 241.20,502.20 245.60,502.10 250.00,500.80 254.40,500.60 258.80,498.80 263.20,497.20 267.60,495.10 272.00,495.70 276.40,496.20 280.80,495.30 285.20,492.70 289.60,490.60 294.00,490.50 298.40,489.50 302.80,489.20 307.20,488.20 311.60,485.10 316.00,482.60 320.50,488.50 324.90,486.80 329.30,487.40 333.70,486.90 338.10,485.40 342.50,486.00 346.90,486.30 351.30,485.30 355.70,486.80 360.10,486.00 364.50,485.80 368.90,488.40 373.30,490.50 377.70,491.20 382.10,489.00 386.50,488.20 390.90,489.00 395.30,486.80 399.70,484.10 404.10,484.90 408.50,483.40 412.90,482.70 417.30,482.60 421.70,486.40 426.10,485.50 430.50,482.30 434.90,482.50 439.30,481.70 443.70,481.40 448.10,479.60 452.50,476.80 456.90,475.90 461.40,474.70 465.80,474.80 470.20,473.70 474.60,471.10 479.00,470.60 483.40,466.40 487.80,465.40 492.20,463.70 496.60,460.10 501.00,457.10 505.40,452.80 509.80,449.80 514.20,452.60 518.60,447.90 523.00,446.90 527.40,448.20 531.80,443.80 536.20,444.00 540.60,443.90 545.00,441.60 549.40,439.20 553.80,438.60 558.20,437.90 562.60,433.40 567.00,431.60 571.40,428.70 575.80,429.30 580.20,427.00 584.60,424.20 589.00,419.30 593.40,418.40 597.80,412.90 602.30,412.50 606.70,404.90 611.10,399.70 615.50,394.60 619.90,387.90 624.30,378.40 628.70,372.10 633.10,366.20 637.50,359.80 641.90,357.90 646.30,352.70 650.70,345.70 655.10,335.30 659.50,331.40 663.90,331.10 668.30,319.20 672.70,317.30 677.10,318.10 681.50,315.60 685.90,311.90 690.30,302.90 694.70,295.10 699.10,279.10 703.50,264.60 707.90,251.10 712.30,233.40 716.70,226.10 721.10,215.20 725.50,192.40 729.90,185.10 734.30,164.20 738.70,154.60 743.20,139.70 747.60,132.70 752.00,111.00 756.40,112.10 760.80,145.00 765.20,109.80 769.60,89.30" stroke-linejoin="round" stroke-width="1.5" stroke="#C15065" fill="none" stroke-linecap="butt"></polyline></g><g id="markers"><circle cx="47.5" cy="512.8" r="1.8" fill="#C15065"></circle><circle cx="51.9" cy="512.5" r="1.8" fill="#C15065"></circle><circle cx="56.3" cy="512.5" r="1.8" fill="#C15065"></circle><circle cx="60.7" cy="512.7" r="1.8" fill="#C15065"></circle><circle cx="65.1" cy="512.6" r="1.8" fill="#C15065"></circle><circle cx="69.5" cy="512.6" r="1.8" fill="#C15065"></circle><circle cx="73.9" cy="512.6" r="1.8" fill="#C15065"></circle><circle cx="78.3" cy="512.6" r="1.8" fill="#C15065"></circle><circle cx="82.7" cy="512.6" r="1.8" fill="#C15065"></circle><circle cx="135.5" cy="511.6" r="1.8" fill="#C15065"></circle><circle cx="139.9" cy="511.7" r="1.8" fill="#C15065"></circle><circle cx="144.3" cy="511.5" r="1.8" fill="#C15065"></circle><circle cx="148.7" cy="511.6" r="1.8" fill="#C15065"></circle><circle cx="153.1" cy="511.3" r="1.8" fill="#C15065"></circle><circle cx="157.5" cy="511.1" r="1.8" fill="#C15065"></circle><circle cx="161.9" cy="510.9" r="1.8" fill="#C15065"></circle><circle cx="166.3" cy="511.1" r="1.8" fill="#C15065"></circle><circle cx="170.7" cy="510.9" r="1.8" fill="#C15065"></circle><circle cx="175.2" cy="510.7" r="1.8" fill="#C15065"></circle><circle cx="179.6" cy="510.4" r="1.8" fill="#C15065"></circle><circle cx="184" cy="510" r="1.8" fill="#C15065"></circle><circle cx="188.4" cy="509.7" r="1.8" fill="#C15065"></circle><circle cx="192.8" cy="509.4" r="1.8" fill="#C15065"></circle><circle cx="197.2" cy="509.1" r="1.8" fill="#C15065"></circle><circle cx="201.6" cy="508.9" r="1.8" fill="#C15065"></circle><circle cx="206" cy="508.8" r="1.8" fill="#C15065"></circle><circle cx="210.4" cy="507.7" r="1.8" fill="#C15065"></circle><circle cx="214.8" cy="507.3" r="1.8" fill="#C15065"></circle><circle cx="219.2" cy="506.8" r="1.8" fill="#C15065"></circle><circle cx="223.6" cy="506.2" r="1.8" fill="#C15065"></circle><circle cx="228" cy="505.5" r="1.8" fill="#C15065"></circle><circle cx="232.4" cy="504.1" r="1.8" fill="#C15065"></circle><circle cx="236.8" cy="503.2" r="1.8" fill="#C15065"></circle><circle cx="241.2" cy="502.2" r="1.8" fill="#C15065"></circle><circle cx="245.6" cy="502.1" r="1.8" fill="#C15065"></circle><circle cx="250" cy="500.8" r="1.8" fill="#C15065"></circle><circle cx="254.4" cy="500.6" r="1.8" fill="#C15065"></circle><circle cx="258.8" cy="498.8" r="1.8" fill="#C15065"></circle><circle cx="263.2" cy="497.2" r="1.8" fill="#C15065"></circle><circle cx="267.6" cy="495.1" r="1.8" fill="#C15065"></circle><circle cx="272" cy="495.7" r="1.8" fill="#C15065"></circle><circle cx="276.4" cy="496.2" r="1.8" fill="#C15065"></circle><circle cx="280.8" cy="495.3" r="1.8" fill="#C15065"></circle><circle cx="285.2" cy="492.7" r="1.8" fill="#C15065"></circle><circle cx="289.6" cy="490.6" r="1.8" fill="#C15065"></circle><circle cx="294" cy="490.5" r="1.8" fill="#C15065"></circle><circle cx="298.4" cy="489.5" r="1.8" fill="#C15065"></circle><circle cx="302.8" cy="489.2" r="1.8" fill="#C15065"></circle><circle cx="307.2" cy="488.2" r="1.8" fill="#C15065"></circle><circle cx="311.6" cy="485.1" r="1.8" fill="#C15065"></circle><circle cx="316" cy="482.6" r="1.8" fill="#C15065"></circle><circle cx="320.5" cy="488.5" r="1.8" fill="#C15065"></circle><circle cx="324.9" cy="486.8" r="1.8" fill="#C15065"></circle><circle cx="329.3" cy="487.4" r="1.8" fill="#C15065"></circle><circle cx="333.7" cy="486.9" r="1.8" fill="#C15065"></circle><circle cx="338.1" cy="485.4" r="1.8" fill="#C15065"></circle><circle cx="342.5" cy="486" r="1.8" fill="#C15065"></circle><circle cx="346.9" cy="486.3" r="1.8" fill="#C15065"></circle><circle cx="351.3" cy="485.3" r="1.8" fill="#C15065"></circle><circle cx="355.7" cy="486.8" r="1.8" fill="#C15065"></circle><circle cx="360.1" cy="486" r="1.8" fill="#C15065"></circle><circle cx="364.5" cy="485.8" r="1.8" fill="#C15065"></circle><circle cx="368.9" cy="488.4" r="1.8" fill="#C15065"></circle><circle cx="373.3" cy="490.5" r="1.8" fill="#C15065"></circle><circle cx="377.7" cy="491.2" r="1.8" fill="#C15065"></circle><circle cx="382.1" cy="489" r="1.8" fill="#C15065"></circle><circle cx="386.5" cy="488.2" r="1.8" fill="#C15065"></circle><circle cx="390.9" cy="489" r="1.8" fill="#C15065"></circle><circle cx="395.3" cy="486.8" r="1.8" fill="#C15065"></circle><circle cx="399.7" cy="484.1" r="1.8" fill="#C15065"></circle><circle cx="404.1" cy="484.9" r="1.8" fill="#C15065"></circle><circle cx="408.5" cy="483.4" r="1.8" fill="#C15065"></circle><circle cx="412.9" cy="482.7" r="1.8" fill="#C15065"></circle><circle cx="417.3" cy="482.6" r="1.8" fill="#C15065"></circle><circle cx="421.7" cy="486.4" r="1.8" fill="#C15065"></circle><circle cx="426.1" cy="485.5" r="1.8" fill="#C15065"></circle><circle cx="430.5" cy="482.3" r="1.8" fill="#C15065"></circle><circle cx="434.9" cy="482.5" r="1.8" fill="#C15065"></circle><circle cx="439.3" cy="481.7" r="1.8" fill="#C15065"></circle><circle cx="443.7" cy="481.4" r="1.8" fill="#C15065"></circle><circle cx="448.1" cy="479.6" r="1.8" fill="#C15065"></circle><circle cx="452.5" cy="476.8" r="1.8" fill="#C15065"></circle><circle cx="456.9" cy="475.9" r="1.8" fill="#C15065"></circle><circle cx="461.4" cy="474.7" r="1.8" fill="#C15065"></circle><circle cx="465.8" cy="474.8" r="1.8" fill="#C15065"></circle><circle cx="470.2" cy="473.7" r="1.8" fill="#C15065"></circle><circle cx="474.6" cy="471.1" r="1.8" fill="#C15065"></circle><circle cx="479" cy="470.6" r="1.8" fill="#C15065"></circle><circle cx="483.4" cy="466.4" r="1.8" fill="#C15065"></circle><circle cx="487.8" cy="465.4" r="1.8" fill="#C15065"></circle><circle cx="492.2" cy="463.7" r="1.8" fill="#C15065"></circle><circle cx="496.6" cy="460.1" r="1.8" fill="#C15065"></circle><circle cx="501" cy="457.1" r="1.8" fill="#C15065"></circle><circle cx="505.4" cy="452.8" r="1.8" fill="#C15065"></circle><circle cx="509.8" cy="449.8" r="1.8" fill="#C15065"></circle><circle cx="514.2" cy="452.6" r="1.8" fill="#C15065"></circle><circle cx="518.6" cy="447.9" r="1.8" fill="#C15065"></circle><circle cx="523" cy="446.9" r="1.8" fill="#C15065"></circle><circle cx="527.4" cy="448.2" r="1.8" fill="#C15065"></circle><circle cx="531.8" cy="443.8" r="1.8" fill="#C15065"></circle><circle cx="536.2" cy="444" r="1.8" fill="#C15065"></circle><circle cx="540.6" cy="443.9" r="1.8" fill="#C15065"></circle><circle cx="545" cy="441.6" r="1.8" fill="#C15065"></circle><circle cx="549.4" cy="439.2" r="1.8" fill="#C15065"></circle><circle cx="553.8" cy="438.6" r="1.8" fill="#C15065"></circle><circle cx="558.2" cy="437.9" r="1.8" fill="#C15065"></circle><circle cx="562.6" cy="433.4" r="1.8" fill="#C15065"></circle><circle cx="567" cy="431.6" r="1.8" fill="#C15065"></circle><circle cx="571.4" cy="428.7" r="1.8" fill="#C15065"></circle><circle cx="575.8" cy="429.3" r="1.8" fill="#C15065"></circle><circle cx="580.2" cy="427" r="1.8" fill="#C15065"></circle><circle cx="584.6" cy="424.2" r="1.8" fill="#C15065"></circle><circle cx="589" cy="419.3" r="1.8" fill="#C15065"></circle><circle cx="593.4" cy="418.4" r="1.8" fill="#C15065"></circle><circle cx="597.8" cy="412.9" r="1.8" fill="#C15065"></circle><circle cx="602.3" cy="412.5" r="1.8" fill="#C15065"></circle><circle cx="606.7" cy="404.9" r="1.8" fill="#C15065"></circle><circle cx="611.1" cy="399.7" r="1.8" fill="#C15065"></circle><circle cx="615.5" cy="394.6" r="1.8" fill="#C15065"></circle><circle cx="619.9" cy="387.9" r="1.8" fill="#C15065"></circle><circle cx="624.3" cy="378.4" r="1.8" fill="#C15065"></circle><circle cx="628.7" cy="372.1" r="1.8" fill="#C15065"></circle><circle cx="633.1" cy="366.2" r="1.8" fill="#C15065"></circle><circle cx="637.5" cy="359.8" r="1.8" fill="#C15065"></circle><circle cx="641.9" cy="357.9" r="1.8" fill="#C15065"></circle><circle cx="646.3" cy="352.7" r="1.8" fill="#C15065"></circle><circle cx="650.7" cy="345.7" r="1.8" fill="#C15065"></circle><circle cx="655.1" cy="335.3" r="1.8" fill="#C15065"></circle><circle cx="659.5" cy="331.4" r="1.8" fill="#C15065"></circle><circle cx="663.9" cy="331.1" r="1.8" fill="#C15065"></circle><circle cx="668.3" cy="319.2" r="1.8" fill="#C15065"></circle><circle cx="672.7" cy="317.3" r="1.8" fill="#C15065"></circle><circle cx="677.1" cy="318.1" r="1.8" fill="#C15065"></circle><circle cx="681.5" cy="315.6" r="1.8" fill="#C15065"></circle><circle cx="685.9" cy="311.9" r="1.8" fill="#C15065"></circle><circle cx="690.3" cy="302.9" r="1.8" fill="#C15065"></circle><circle cx="694.7" cy="295.1" r="1.8" fill="#C15065"></circle><circle cx="699.1" cy="279.1" r="1.8" fill="#C15065"></circle><circle cx="703.5" cy="264.6" r="1.8" fill="#C15065"></circle><circle cx="707.9" cy="251.1" r="1.8" fill="#C15065"></circle><circle cx="712.3" cy="233.4" r="1.8" fill="#C15065"></circle><circle cx="716.7" cy="226.1" r="1.8" fill="#C15065"></circle><circle cx="721.1" cy="215.2" r="1.8" fill="#C15065"></circle><circle cx="725.5" cy="192.4" r="1.8" fill="#C15065"></circle><circle cx="729.9" cy="185.1" r="1.8" fill="#C15065"></circle><circle cx="734.3" cy="164.2" r="1.8" fill="#C15065"></circle><circle cx="738.7" cy="154.6" r="1.8" fill="#C15065"></circle><circle cx="743.2" cy="139.7" r="1.8" fill="#C15065"></circle><circle cx="747.6" cy="132.7" r="1.8" fill="#C15065"></circle><circle cx="752" cy="111" r="1.8" fill="#C15065"></circle><circle cx="756.4" cy="112.1" r="1.8" fill="#C15065"></circle><circle cx="760.8" cy="145" r="1.8" fill="#C15065"></circle><circle cx="765.2" cy="109.8" r="1.8" fill="#C15065"></circle><circle cx="769.6" cy="89.3" r="1.8" fill="#C15065"></circle></g></g></g></g></g></g><g id="footer" class="SourcesFooter" style="fill:#5b5b5b"><g id="sources" class="markdown-text-wrap"><text x="16.0" y="562.7" style="font-size:13.5px;line-height:1.2"><tspan x="16" y="562.7"><tspan style="font-weight:700">Data source:</tspan> Global Carbon Budget (2023); Population based on various sources (2023)</tspan></text></g><text id="origin-url" font-size="13.50" x="16.0" y="580.9"><tspan x="16" y="580.8950000000001"><a target="_blank" style="fill: #5b5b5b;" href="https://ourworldindata.org/co2-and-greenhouse-gas-emissions">OurWorldInData.org/co2-and-greenhouse-gas-emissions</a> | <a target="_blank" style="fill: #5b5b5b;" href="https://creativecommons.org/licenses/by/4.0/">CC BY</a></tspan></text></g><line id="separator-line" x1="16" y1="600" x2="834" y2="600" stroke="#e7e7e7"></line><g id="details" transform="translate(15, 616)"><g class="markdown-text-wrap"><text x="0.0" y="12.0" style="font-size:12.375px;fill:#5b5b5b;line-height:1.2"><tspan x="0" y="12.0"><tspan style="font-weight:700">1.</tspan> <tspan style="font-weight:700">Fossil emissions</tspan>: Fossil emissions measure the quantity of carbon dioxide (CO₂) emitted from the burning of fossil fuels, and directly from</tspan><tspan x="0" y="26.9">industrial processes such as cement and steel production. Fossil CO₂ includes emissions from coal, oil, gas, flaring, cement, steel, and other</tspan><tspan x="0" y="41.7">industrial processes. Fossil emissions do not include land use change, deforestation, soils, or vegetation.</tspan></text></g></g></svg>